<svg width="120" height="120" xmlns="http://www.w3.org/2000/svg" xmlns:xlink="http://www.w3.org/1999/xlink">
 <defs>
  <linearGradient y2="0.206503" x2="13.824781" y1="1.629897" x1="-50.797465" id="a">
   <stop stop-color="#73c69c" offset="0"/>
   <stop stop-color="#0f8093" offset="1"/>
  </linearGradient>
  <linearGradient xlink:href="#a" y2="150.9404" x2="416.7887" y1="55.9404" x1="2.2887" id="b"/>
  <linearGradient xlink:href="#a" y2="82.0941" x2="432.5677" y1="-12.9059" x1="18.0677" id="c"/>
  <linearGradient xlink:href="#a" y2="145.0383" x2="418.1415" y1="50.0383" x1="3.6415" id="d"/>
  <linearGradient xlink:href="#a" y2="72.3249" x2="434.8068" y1="-22.6751" x1="20.3067" id="e"/>
  <linearGradient xlink:href="#a" y2="118.7875" x2="424.158" y1="23.7875" x1="9.6579" id="f"/>
 </defs>
 <title>propic-logo-with-strap</title>
 <g>
  <title>background</title>
  <rect fill="none" id="canvas_background" height="122" width="122" y="-1" x="-1"/>
 </g>
 <g>
  <title>Layer 1</title>
  <g stroke="null" id="svg_1">
   <rect stroke="null" x="1" y="21" id="svg_2" fill="none" height="142.999995" width="117.000006"/>
   <g stroke="null" id="svg_3">
    <g stroke="null" id="svg_4">
     <g stroke="null" id="svg_5">
      <path stroke="null" id="svg_6" fill="#fff" d="m5.14422,133.451263l-0.567743,0l0,-1.775702l0.567796,0l-0.000053,1.775702zm0.000053,7.512934l-0.567796,0l0,-6.236802l0.567796,0l0,8.012504l0,-1.775702z"/>
      <path stroke="null" id="svg_7" fill="#fff" d="m6.513226,134.727395l0,0.912268a1.129954,3.038321 0 0 1 0.943286,-1.127054a1.004312,2.700483 0 0 1 0.808364,0.878592a1.116818,3.003 0 0 1 0.197331,1.989702l0,5.35821l-0.567184,0l0,-5.242237c0,-1.095237 -0.185472,-1.626124 -0.573513,-1.626124a0.707451,1.902257 0 0 0 -0.783634,2.007648l0,4.859569l-0.567796,0l0,-8.010574l0.543146,0z"/>
      <path stroke="null" id="svg_8" fill="#fff" d="m10.478835,135.938462l-0.536684,0l0,5.02645c0,0.464249 0.079773,0.7293 0.221502,0.7293a0.814745,2.19076 0 0 0 0.314969,-0.215787l0,1.2446a1.893273,5.0908 0 0 1 -0.474807,0.182182c-0.425455,0 -0.629487,-0.613684 -0.629487,-1.940152l0,-5.02645l-0.400831,0l0,-1.211067l0.400831,0l0,-2.53732l0.567822,0l0,2.53732l0.536472,0l0,1.211067l0.000213,-0.000143z"/>
      <path stroke="null" id="svg_9" fill="#fff" d="m11.366812,139.10677c0.043157,1.642569 0.351505,2.57114 0.863327,2.57114a0.716253,1.925924 0 0 0 0.72197,-1.392963l0.542667,0a1.2285,3.3033 0 0 1 -1.276975,2.670382a1.431974,3.850418 0 0 1 -1.425751,-3.867077q0.000266,-0.181896 0.006967,-0.362934a1.416258,3.808161 0 0 1 1.400304,-4.212708a1.222331,3.286712 0 0 1 1.221453,2.3881a2.646194,7.115322 0 0 1 0.117638,2.205918l-2.1716,0.000143zm3.750728,-1.111825c-0.024676,-1.459458 -0.296462,-2.272556 -0.74662,-2.272556a0.8307,2.23366 0 0 0 -0.826445,2.2451l0,0.027527l1.573065,-0.000071z"/>
      <polygon stroke="null" id="svg_10" fill="#fff" points="14.77728271484375,142.73947143554688 14.209832191467285,142.73947143554688 14.209832191467285,131.6755599975586 14.77728271484375,131.6755599975586 14.77728271484375,142.73947143554688 14.77728271484375,142.73947143554688 "/>
      <polygon stroke="null" id="svg_11" fill="#fff" points="16.17091178894043,142.73947143554688 15.603462219238281,142.73947143554688 15.603462219238281,131.6755599975586 16.17091178894043,131.6755599975586 16.17091178894043,142.73947143554688 16.17091178894043,142.73947143554688 "/>
      <path stroke="null" id="svg_12" fill="#fff" d="m17.564728,133.451263l-0.567317,0l0,-1.775702l0.567317,0l0,1.775702zm0,7.512934l-0.567317,0l0,-6.236802l0.567317,0l0,8.012504l0,-1.775702z"/>
      <path stroke="null" id="svg_13" fill="#fff" d="m20.944991,134.727395l0,7.697189a0.984715,2.647788 0 0 1 -0.302179,2.222434a1.582159,4.25425 0 0 1 -1.04263,0.845773a1.334864,3.5893 0 0 1 -0.993277,-0.912197a0.819266,2.202915 0 0 1 -0.215838,-1.475831l0.543119,0c0.030845,0.77935 0.259022,1.177247 0.684503,1.177247c0.536498,0 0.783634,-0.613756 0.783634,-1.940152l0,-0.91234a1.162023,3.12455 0 0 1 -0.882286,1.044257a1.314468,3.534459 0 0 1 -1.284341,-3.613681q0.001276,-0.150579 0.007313,-0.3003c0,-2.389101 0.530329,-4.0469 1.289287,-4.0469a1.034599,2.781922 0 0 1 0.881834,1.094379l-0.01186,-0.880093l0.54272,0.000214zm-2.670685,3.765547c0,1.642569 0.3017,2.654008 0.801663,2.654008c0.487172,0 0.795494,-1.011439 0.795494,-2.621261c0,-1.675316 -0.295531,-2.686755 -0.801663,-2.686755c0.048927,0.000214 -0.252773,1.011653 -0.252773,2.654223l-0.54272,-0.000214z"/>
      <path stroke="null" id="svg_14" fill="#fff" d="m22.196333,139.10677c0.043157,1.642569 0.351505,2.57114 0.863327,2.57114a0.716253,1.925924 0 0 0 0.72197,-1.392963l0.542667,0a1.2285,3.3033 0 0 1 -1.276975,2.670382a1.431974,3.850418 0 0 1 -1.425751,-3.867077q0.000293,-0.181896 0.006967,-0.362934a1.416232,3.80809 0 0 1 1.400277,-4.212708a1.222358,3.286783 0 0 1 1.22148,2.3881a2.646194,7.115322 0 0 1 0.117638,2.205918l-2.1716,0.000143zm3.750728,-1.111825c-0.024676,-1.459458 -0.295983,-2.272556 -0.746646,-2.272556a0.8307,2.23366 0 0 0 -0.826419,2.2451l0,0.027527l1.573065,-0.000071z"/>
      <path stroke="null" id="svg_15" fill="#fff" d="m25.582286,134.727395l0,0.912268a1.130566,3.039965 0 0 1 0.943472,-1.127054a1.004312,2.700483 0 0 1 0.808364,0.878592a1.116579,3.002356 0 0 1 0.197331,1.989702l0,5.35821l-0.56737,0l0,-5.242237c0,-1.095237 -0.184993,-1.626124 -0.573513,-1.626124a0.707451,1.902257 0 0 0 -0.783634,2.007648l0,4.859569l-0.567317,0l0,-8.010574l0.542667,0z"/>
      <path stroke="null" id="svg_16" fill="#fff" d="m29.548001,135.938462l-0.536684,0l0,5.02645c0,0.464249 0.079773,0.7293 0.221502,0.7293a0.819,2.2022 0 0 0 0.314996,-0.215787l0,1.2446a1.893539,5.091515 0 0 1 -0.474834,0.182182c-0.425986,0 -0.629939,-0.613684 -0.629939,-1.940152l0,-5.02645l-0.400831,0l0,-1.211067l0.400831,0l0,-2.53732l0.568274,0l0,2.53732l0.536498,0l0,1.211067l0.000186,-0.000143z"/>
      <polygon stroke="null" id="svg_17" fill="#fff" points="30.608448028564453,142.73947143554688 30.04046630859375,142.73947143554688 30.04046630859375,131.6755599975586 30.608448028564453,131.6755599975586 30.608448028564453,142.73947143554688 30.608448028564453,142.73947143554688 "/>
      <path stroke="null" id="svg_18" fill="#fff" d="m33.976452,134.727395l-1.313963,8.974608c-0.166964,1.110681 -0.388972,1.574859 -0.752789,1.574859a1.224777,3.29329 0 0 1 -0.456805,-0.248391l0,-1.243671a0.863513,2.321891 0 0 0 0.358126,0.215787a0.412345,1.10875 0 0 0 0.413648,-0.829042l0.079773,-0.630987l-1.233393,-7.812662l0.610474,0l0.660305,4.579003c0.0982,0.69641 0.116708,0.812097 0.222008,1.691547c0.067833,-0.597168 0.166007,-1.426639 0.2035,-1.691547l0.616643,-4.579003l0.592472,-0.0005z"/>
     </g>
     <g stroke="null" id="svg_19">
      <path stroke="null" id="svg_20" fill="#fff" d="m38.348582,137.448042a0.70676,1.900398 0 0 0 -0.752789,-1.6588c-0.542667,0 -0.906484,1.161803 -0.906484,2.919917c0,1.808306 0.357169,2.968966 0.906484,2.968966a0.747045,2.008721 0 0 0 0.788926,-1.889459c0.000372,-0.01716 0.000665,-0.034391 0.000878,-0.051551l0.536498,0a1.239721,3.333473 0 0 1 -1.277906,3.22751q-0.030393,-0.002431 -0.060734,-0.00908a1.570619,4.223219 0 1 1 0.018321,-8.44272a1.177153,3.165233 0 0 1 1.280831,2.859356q0.00133,0.037966 0.002287,0.076076l-0.536312,-0.000214z"/>
      <path stroke="null" id="svg_21" fill="#fff" d="m42.258696,138.791884a1.452236,3.904901 0 1 1 -1.437292,-4.279275c0.869975,0 1.437292,1.69169 1.437292,4.279275zm-2.29445,-0.066566c0,1.874944 0.314491,2.95295 0.863327,2.95295c0.536498,0 0.857637,-1.077934 0.857637,-2.902471c0,-1.924851 -0.308455,-2.986412 -0.863806,-2.986412c-0.542667,-0.000357 -0.857158,1.078649 -0.857158,2.935933z"/>
      <path stroke="null" id="svg_22" fill="#fff" d="m43.47305,134.727395l0,0.912268a1.131417,3.042253 0 0 1 0.943977,-1.127054a1.005588,2.703915 0 0 1 0.808364,0.878592a1.116818,3.003 0 0 1 0.197331,1.989702l0,5.35821l-0.567982,0l0,-5.242237c0,-1.095237 -0.184993,-1.626124 -0.573513,-1.626124a0.707451,1.902257 0 0 0 -0.783634,2.007648l0,4.859569l-0.567317,0l0,-8.010574l0.542774,0z"/>
      <path stroke="null" id="svg_23" fill="#fff" d="m46.797312,134.727395l0,0.912268a1.130114,3.03875 0 0 1 0.943499,-1.127054a1.004312,2.700483 0 0 1 0.808364,0.878592a1.116818,3.003 0 0 1 0.197331,1.989702l0,5.35821l-0.567344,0l0,-5.242237c0,-1.095237 -0.185472,-1.626124 -0.573486,-1.626124a0.707451,1.902257 0 0 0 -0.783634,2.007648l0,4.859569l-0.567982,0l0,-8.010574l0.543252,0z"/>
      <path stroke="null" id="svg_24" fill="#fff" d="m49.998273,139.10677c0.043157,1.642569 0.351505,2.57114 0.863327,2.57114a0.716279,1.925995 0 0 0 0.72197,-1.392963l0.542774,0a1.2285,3.3033 0 0 1 -1.276975,2.670382a1.431974,3.850418 0 0 1 -1.425751,-3.867149q0.000266,-0.181824 0.006967,-0.362862a1.416232,3.80809 0 0 1 1.400277,-4.212708a1.222358,3.286783 0 0 1 1.22148,2.3881a2.646194,7.115322 0 0 1 0.117638,2.205918l-2.171706,0.000143zm3.750834,-1.111825c-0.024676,-1.459458 -0.29601,-2.272556 -0.746646,-2.272556a0.830673,2.233588 0 0 0 -0.826419,2.2451l0,0.027527l1.573065,-0.000071z"/>
      <path stroke="null" id="svg_25" fill="#fff" d="m54.926366,137.448042a0.70676,1.900398 0 0 0 -0.752789,-1.6588c-0.542667,0 -0.906989,1.161803 -0.906989,2.919917c0,1.808306 0.357674,2.968966 0.906989,2.968966a0.746912,2.008363 0 0 0 0.788474,-1.890031c0.000372,-0.017017 0.000638,-0.033962 0.000851,-0.050979l0.53695,0a1.240147,3.334617 0 0 1 -1.27873,3.22751q-0.030234,-0.002574 -0.060361,-0.00908a1.570619,4.223219 0 1 1 0.018986,-8.44272a1.177446,3.16602 0 0 1 1.280884,2.860929q0.001276,0.037251 0.002234,0.074503l-0.536498,-0.000214z"/>
      <path stroke="null" id="svg_26" fill="#fff" d="m57.287479,135.938462l-0.536472,0l0,5.02645c0,0.464249 0.079773,0.7293 0.221981,0.7293a0.815144,2.191832 0 0 0 0.314517,-0.215787l0,1.2446a1.893539,5.091515 0 0 1 -0.474834,0.182182c-0.425455,0 -0.629008,-0.613684 -0.629008,-1.940152l0,-5.02645l-0.401283,0l0,-1.211067l0.401283,0l0,-2.53732l0.567344,0l0,2.53732l0.536631,0l-0.00016,1.210924z"/>
      <path stroke="null" id="svg_27" fill="#fff" d="m58.403846,133.451263l-0.567344,0l0,-1.775702l0.567344,0l0,1.775702zm0,7.512934l-0.567344,0l0,-6.236802l0.567344,0l0,8.012504l0,-1.775702z"/>
      <path stroke="null" id="svg_28" fill="#fff" d="m59.772826,134.727395l0,0.912268a1.13147,3.042396 0 0 1 0.943977,-1.127054a1.004312,2.700483 0 0 1 0.808364,0.878592a1.116579,3.002356 0 0 1 0.197331,1.989702l0,5.35821l-0.567317,0l0,-5.242237c0,-1.095237 -0.185472,-1.626124 -0.573965,-1.626124a0.707079,1.901256 0 0 0 -0.783182,2.007648l0,4.859569l-0.567796,0l0,-8.010574l0.542588,0z"/>
      <path stroke="null" id="svg_29" fill="#fff" d="m65.083216,134.727395l0,7.697189a0.984608,2.647502 0 0 1 -0.302153,2.222434a1.581574,4.252677 0 0 1 -1.042151,0.845773a1.335342,3.590587 0 0 1 -0.993782,-0.912268a0.823893,2.215356 0 0 1 -0.215838,-1.475831l0.543146,0c0.030845,0.77935 0.258995,1.177247 0.684503,1.177247c0.536498,0 0.783634,-0.613756 0.783634,-1.940152l0,-0.91234a1.162182,3.124979 0 0 1 -0.882313,1.044257a1.314442,3.534388 0 0 1 -1.284341,-3.613681q0.001276,-0.150579 0.007313,-0.3003c0,-2.389101 0.530329,-4.0469 1.289287,-4.0469a1.034599,2.781922 0 0 1 0.881834,1.094379l-0.01186,-0.880093l0.54272,0.000286zm-2.670658,3.765476c0,1.642569 0.301674,2.654008 0.801663,2.654008c0.487145,0 0.795494,-1.011439 0.795494,-2.621261c0,-1.675316 -0.295531,-2.686755 -0.801663,-2.686755c0.048901,0.000286 -0.252773,1.011725 -0.252773,2.654294l-0.54272,-0.000286z"/>
     </g>
     <g stroke="null" id="svg_30">
      <path stroke="null" id="svg_31" fill="#fff" d="m72.821384,134.925879l0,0.880093a1.197734,3.220574 0 0 1 0.906963,-1.045258c0.795972,0 1.320132,1.692691 1.320132,4.296435c0,2.537463 -0.493793,4.163588 -1.270806,4.163588a1.18279,3.180391 0 0 1 -0.956289,-1.128055l0,3.449732l-0.567344,0l0,-10.616534l0.567344,0zm-0.59771,4.014367c0,1.94101 0.295531,3.002571 0.844846,3.002571c0.53695,0 0.838651,-1.06156 0.838651,-2.95295s-0.3017,-2.95295 -0.838651,-2.95295s-0.277503,1.062275 -0.277503,2.903329l-0.567344,0z"/>
      <path stroke="null" id="svg_32" fill="#fff" d="m76.139956,139.371678c0.042705,1.642569 0.351505,2.57114 0.863327,2.57114a0.716253,1.925924 0 0 0 0.72197,-1.392963l0.542614,0a1.228926,3.304444 0 0 1 -1.276975,2.670382a1.431761,3.849846 0 0 1 -1.425778,-3.86579q0.000293,-0.182396 0.006993,-0.364221a1.416578,3.809019 0 0 1 1.400304,-4.213709a1.223182,3.289 0 0 1 1.221453,2.389101a2.634627,7.08422 0 0 1 0.11716,2.206633l-2.171068,-0.000572zm1.579128,-1.111682c-0.024676,-1.459386 -0.296462,-2.272556 -0.746646,-2.272556a0.830408,2.232873 0 0 0 -0.826445,2.243455l0,0.0291l1.573092,0z"/>
      <path stroke="null" id="svg_33" fill="#fff" d="m81.702535,139.056649a1.451864,3.9039 0 1 1 -1.437292,-4.280133c0.869948,0 1.437292,1.692691 1.437292,4.280133zm-2.29445,-0.066423c0,1.874944 0.314491,2.95295 0.863327,2.95295c0.536977,0 0.857637,-1.077862 0.857637,-2.902471c0,-1.924851 -0.308455,-2.986412 -0.863806,-2.986412c-0.542667,-0.000357 -0.857158,1.078649 -0.857158,2.935933z"/>
      <path stroke="null" id="svg_34" fill="#fff" d="m82.942204,134.925879l0,0.880093a1.196405,3.216999 0 0 1 0.906989,-1.045258c0.795494,0 1.320132,1.692691 1.320132,4.296435c0,2.537463 -0.49382,4.163588 -1.270859,4.163588a1.182072,3.178461 0 0 1 -0.956262,-1.128055l0,3.449732l-0.567317,0l0,-10.616534l0.567317,0zm-0.598136,4.014367c0,1.94101 0.295983,3.002571 0.845298,3.002571c0.536498,0 0.838651,-1.06156 0.838651,-2.95295s-0.302153,-2.95295 -0.838651,-2.95295s-0.277981,1.062275 -0.277981,2.903329l-0.567317,0z"/>
      <polygon stroke="null" id="svg_35" fill="#fff" points="86.4076156616211,143.00473022460938 85.84042358398438,143.00473022460938 85.84042358398438,131.9401092529297 86.4076156616211,131.9401092529297 86.4076156616211,143.00473022460938 86.4076156616211,143.00473022460938 "/>
      <path stroke="null" id="svg_36" fill="#fff" d="m87.654033,139.371678c0.043104,1.642569 0.351452,2.57114 0.863327,2.57114a0.716279,1.925995 0 0 0 0.72197,-1.392963l0.542641,0a1.2285,3.3033 0 0 1 -1.276364,2.670382a1.432053,3.850632 0 0 1 -1.42623,-3.866362q0.000266,-0.182182 0.00694,-0.363649a1.416737,3.809448 0 0 1 1.258308,-4.192259q0.070758,-0.020234 0.141995,-0.02145a1.222623,3.287498 0 0 1 1.221453,2.389101a2.646966,7.117396 0 0 1 0.117665,2.206633l-2.171706,-0.000572zm1.579075,-1.111682c-0.024676,-1.459386 -0.29601,-2.272556 -0.746646,-2.272556a0.830647,2.233517 0 0 0 -0.826153,2.245529l0,0.026884l1.572799,0.000143z"/>
     </g>
     <path stroke="null" id="svg_37" fill="#fff" d="m94.913033,137.895703a2.77306,7.456449 0 0 1 -0.191162,2.553908l0.697293,2.554909l-0.617069,0l-0.357701,-1.277347a1.273545,3.424421 0 0 1 -1.061562,1.410266a1.126816,3.029884 0 0 1 -1.199968,-2.819531q-0.002313,-0.091448 -0.002659,-0.183183c0,-1.310166 0.240488,-2.206633 0.894146,-3.334116a1.512704,4.067492 0 0 1 -0.431438,-2.537463a0.912839,2.454523 0 0 1 1.820095,0.048977c0,1.061703 -0.185525,1.82468 -0.67275,2.78707l0.567822,2.056697a1.891252,5.085366 0 0 0 0.086288,-1.260187l0.468665,0zm-2.010938,-0.05005c-0.438298,0.613613 -0.635523,1.310023 -0.635523,2.205918a0.656024,1.763976 0 0 0 0.657274,1.760687q0.016912,0 0.033797,-0.002574a0.821473,2.208849 0 0 0 0.722023,-1.193549l-0.777465,-2.770482l-0.000106,0zm0.580134,-3.500068a0.386552,1.039395 0 0 0 -0.384106,-1.045902q-0.008615,0 -0.017178,0.000715a0.376341,1.011939 0 0 0 -0.394848,0.959458l-0.000293,0.019376c0,0.480766 0.093068,0.945015 0.364295,1.824608c0.314517,-0.663234 0.432155,-1.1445 0.432155,-1.758256l-0.000027,0z"/>
     <g stroke="null" id="svg_38">
      <path stroke="null" id="svg_39" fill="#fff" d="m98.261573,134.925879l0,0.880093a1.196298,3.216713 0 0 1 0.906963,-1.045258c0.795494,0 1.320132,1.692691 1.320132,4.296435c0,2.537463 -0.493846,4.163588 -1.27078,4.163588a1.182179,3.178747 0 0 1 -0.956315,-1.128341l0,3.449732l-0.56745,0l0,-10.616248l0.56745,0zm-0.598269,4.014367c0,1.94101 0.295983,3.002571 0.845298,3.002571c0.536498,0 0.838651,-1.06156 0.838651,-2.95295s-0.302153,-2.95295 -0.838651,-2.95295s-0.277928,1.062275 -0.277928,2.903329l-0.56737,0z"/>
      <polygon stroke="null" id="svg_40" fill="#fff" points="101.72689819335938,143.00473022460938 101.15972137451172,143.00473022460938 101.15972137451172,131.9401092529297 101.72689819335938,131.9401092529297 101.72689819335938,143.00473022460938 101.72689819335938,143.00473022460938 "/>
      <path stroke="null" id="svg_41" fill="#fff" d="m102.54731,137.646383a1.130885,3.040823 0 0 1 0.240967,-1.956526a1.295536,3.483551 0 0 1 0.968148,-0.913341c0.740477,0 1.159816,0.946016 1.159816,2.604959l0,3.764689c0,0.630987 0.031298,0.764049 0.160317,0.764049a0.370784,0.996996 0 0 0 0.148005,-0.083941l0,1.178391a1.626513,4.373512 0 0 1 -0.370013,0.116616c-0.271227,0 -0.394662,-0.316101 -0.444068,-1.079078a1.377595,3.7042 0 0 1 -1.030291,1.178177a0.885477,2.38095 0 0 1 -0.974796,-2.371798c0,-1.293721 0.296462,-2.090374 0.900794,-2.421776l0.660305,-0.348705c0.357196,-0.182253 0.43165,-0.331617 0.43165,-0.8294c0,-0.77935 -0.252826,-1.261117 -0.654136,-1.261117a0.644351,1.732588 0 0 0 -0.598295,0.680108a0.78515,2.11118 0 0 0 -0.06786,0.978835l-0.530542,-0.000143zm2.393794,1.244743a2.460803,6.616824 0 0 1 -0.351505,0.298727l-0.580134,0.365007c-0.345336,0.2145 -0.499484,0.59631 -0.499484,1.22744c0,0.7293 0.221981,1.227154 0.554979,1.227154a0.8353,2.246029 0 0 0 0.876144,-2.090445l0,-1.027884z"/>
      <path stroke="null" id="svg_42" fill="#fff" d="m107.857701,137.712806a0.706281,1.899111 0 0 0 -0.752337,-1.6588c-0.543119,0 -0.907016,1.16166 -0.907016,2.919917c0,1.808306 0.357728,2.968966 0.907016,2.968966a0.746939,2.008435 0 0 0 0.788474,-1.890245q0.000558,-0.025525 0.000851,-0.051051l0.536924,0a1.240333,3.335117 0 0 1 -1.279023,3.227724q-0.030074,-0.002431 -0.060042,-0.009009a1.570805,4.223719 0 1 1 0.018614,-8.443721a1.177977,3.16745 0 0 1 1.281389,2.86193c0.000851,0.024739 0.001569,0.049549 0.002207,0.07436l-0.537057,-0.000071z"/>
      <path stroke="null" id="svg_43" fill="#fff" d="m109.467195,139.371678c0.043157,1.642569 0.351479,2.57114 0.863327,2.57114a0.716279,1.925995 0 0 0 0.72197,-1.392963l0.542641,0a1.2285,3.3033 0 0 1 -1.276364,2.670382a1.432053,3.850632 0 0 1 -1.42623,-3.866362q0.000293,-0.182182 0.006967,-0.363649a1.416578,3.809019 0 0 1 1.400277,-4.213709a1.222623,3.287498 0 0 1 1.221427,2.389101a2.646221,7.115394 0 0 1 0.117691,2.206633l-2.171706,-0.000572zm1.578915,-1.111682c-0.02465,-1.459386 -0.295983,-2.272484 -0.74662,-2.272484a0.830673,2.233588 0 0 0 -0.826445,2.2451l0,0.027527l1.573065,-0.000143z"/>
      <path stroke="null" id="svg_44" fill="#fff" d="m114.024797,137.448042a0.595796,1.602029 0 0 0 -0.657248,-1.417702q-0.010636,0.003146 -0.021087,0.00715c-0.33922,0 -0.567317,0.381524 -0.567317,0.946088c0,0.397826 0.104821,0.663234 0.345682,0.8294l0.690672,0.480694c0.622812,0.431502 0.881808,1.128055 0.881808,2.355353c0,1.576003 -0.481003,2.57114 -1.239961,2.57114c-0.807832,0 -1.288808,-1.061632 -1.350818,-2.968966l0.561627,0c0.030845,1.06156 0.326829,1.691547 0.802141,1.691547c0.407,0 0.672165,-0.480623 0.672165,-1.227297c0,-0.530673 -0.129498,-0.813098 -0.474834,-1.06156l-0.592472,-0.397826a1.474094,3.963674 0 0 1 -0.62946,-0.746674a0.69365,1.865149 0 0 1 -0.221529,-1.376518c0,-1.377519 0.474834,-2.356425 1.146999,-2.356425a1.250172,3.361572 0 0 1 0.987108,1.06156a0.996069,2.678318 0 0 1 0.210068,1.609894l-0.543545,0.000143z"/>
     </g>
    </g>
    <path stroke="null" id="svg_45" fill="#fff" d="m115.410184,151.988853l-43.852028,0a2.595273,6.9784 0 0 1 -2.592348,-6.96982l0,-11.996842a3.159186,8.4947 0 0 0 -3.155783,-8.486549l-62.347575,0l0,1.517802l62.347575,0a2.594714,6.976898 0 0 1 2.591391,6.96889l0,11.996842a3.160463,8.498132 0 0 0 3.15682,8.487622l43.851948,0l0,-1.517945z"/>
    <path stroke="null" id="svg_46" opacity="0.8" fill="#fff" d="m42.258589,139.178842a1.452263,3.904972 0 1 1 -1.437292,-4.279275c0.869948,-0.000071 1.437292,1.69169 1.437292,4.279275zm-2.29445,-0.066566c0,1.874944 0.314491,2.952592 0.863327,2.952592c0.536472,0 0.85761,-1.077862 0.85761,-2.902471c0,-1.924851 -0.308455,-2.986412 -0.863779,-2.986412c-0.542667,0 -0.857158,1.079006 -0.857158,2.93629z"/>
    <path stroke="null" id="svg_47" opacity="0.8" fill="#fff" d="m81.702429,139.443607a1.451864,3.9039 0 1 1 -1.437318,-4.280133c0.869975,0 1.437318,1.692691 1.437318,4.280133zm-2.294476,-0.066423c0,1.874944 0.314491,2.95295 0.863327,2.95295c0.536977,0 0.857637,-1.077862 0.857637,-2.902471c0,-1.924851 -0.308322,-2.986412 -0.863806,-2.986412c-0.54272,-0.000357 -0.857158,1.07872 -0.857158,2.935933z"/>
   </g>
   <g stroke="null" id="svg_48">
    <rect stroke="null" id="svg_49" fill="url(#a)" height="47.720457" width="1.705594" y="30.223357" x="91.638335"/>
    <path stroke="null" id="svg_50" fill="url(#b)" d="m13.188901,27.930209a9.737591,26.183299 0 0 0 -9.72645,26.153341l0,45.799109l1.705621,0l0,-31.027281a9.724509,26.148121 0 1 0 8.020829,-40.925168zm0,47.720457a8.020829,21.567116 0 1 1 8.020829,-21.567116l0,0a8.030003,21.591784 0 0 1 -8.020829,21.567116z"/>
    <path stroke="null" id="svg_51" fill="url(#c)" d="m108.659948,75.637795a8.020829,21.567116 0 1 1 5.671682,-36.817637l1.205924,-3.242525a9.72637,26.153126 0 1 0 -0.000293,36.986949l0.000293,-0.000786l-1.205924,-3.242525a7.968259,21.425761 0 0 1 -5.671682,6.316524z"/>
    <path stroke="null" id="svg_52" fill="url(#d)" d="m31.35379,35.577634a9.662259,25.98074 0 0 0 -2.84887,18.493045l0,23.854616l1.705621,0l0,-23.854616a8.020483,21.566187 0 0 1 8.020138,-21.567116l0.674665,0l0,-4.586224l-0.673947,0a9.662206,25.980597 0 0 0 -6.877606,7.660295z"/>
    <polygon stroke="null" id="svg_53" fill="url(#e)" points="66.59578704833984,99.8695068359375 68.30133056640625,99.8695068359375 68.30133056640625,78.43022155761719 66.59578704833984,73.77057266235352 66.59578704833984,99.8695068359375 "/>
    <path stroke="null" id="svg_54" fill="url(#f)" d="m83.19987,35.577634a9.71709,26.128173 0 0 0 -16.457114,14.077134l1.561418,4.265904a7.993042,21.492399 0 1 1 2.351221,15.413326l-2.353801,-6.431067l-1.705594,-4.659726l-8.286871,-22.639688l0,0l-0.00476,-0.012941l0,0l-0.001728,-0.00429l-0.017364,-0.047047l-0.000904,0.002431a9.742537,26.196598 0 1 0 2.721952,22.957934l-1.561392,-4.265904a8.016628,21.555819 0 1 1 -2.353056,-15.41783l0.04547,0.123695l3.858793,10.542246l5.59978,15.298783l1.705674,4.659726l1.14325,3.123406a9.72637,26.153126 0 0 0 13.755159,-36.986091l-0.000133,0z"/>
   </g>
  </g>
 </g>
</svg>